<svg version="1.1" id="Layer_1" xmlns="http://www.w3.org/2000/svg" xmlns:xlink="http://www.w3.org/1999/xlink" x="0px" y="0px"
	 width="100%" viewBox="0 0 256 272" enable-background="new 0 0 256 272" xml:space="preserve">
<path fill="#F5F5F6" opacity="1.000000" stroke="none" 
	d="
M147.000000,273.000000 
	C98.000000,273.000000 49.500000,273.000000 1.000000,273.000000 
	C1.000000,182.333328 1.000000,91.666664 1.000000,1.000000 
	C86.333336,1.000000 171.666672,1.000000 257.000000,1.000000 
	C257.000000,91.666664 257.000000,182.333328 257.000000,273.000000 
	C220.500000,273.000000 184.000000,273.000000 147.000000,273.000000 
M196.907303,45.451962 
	C196.608963,45.333618 196.310623,45.215271 195.603409,44.962803 
	C195.603409,44.962803 195.174332,44.930157 194.930511,44.292385 
	C193.950256,43.872612 192.970016,43.452839 191.605774,42.920135 
	C191.605774,42.920135 191.205688,42.930782 190.952484,42.438576 
	C190.636551,42.318981 190.320602,42.199387 189.597992,41.940773 
	C189.597992,41.940773 189.168228,41.935680 188.973663,41.491608 
	C188.320297,41.341156 187.666931,41.190708 186.531433,40.919651 
	C186.531433,40.919651 186.038498,40.983047 185.751190,40.580582 
	C185.166306,40.383217 184.581406,40.185848 183.625900,39.871464 
	C183.625900,39.871464 183.238571,39.903603 183.047455,39.362934 
	C176.042694,37.737423 169.110199,35.377373 162.014206,34.679340 
	C153.838913,33.875137 145.456375,33.949940 137.289551,34.821270 
	C133.382019,35.238171 127.536491,33.588745 125.928047,39.946758 
	C125.928047,39.946758 125.889809,39.842022 125.083862,40.089085 
	C123.536819,39.874958 121.418449,40.227718 120.543892,39.346321 
	C117.169037,35.945084 113.299294,36.621189 109.371849,37.332611 
	C103.139961,38.461468 96.964874,39.950706 90.703781,40.861370 
	C79.448051,42.498501 69.014664,46.047935 59.417515,53.035995 
	C59.120064,53.164864 58.941257,53.388565 58.255989,53.965076 
	C56.685707,55.375717 55.115429,56.786358 53.322815,58.326824 
	C53.322815,58.326824 53.198547,58.552311 52.670387,58.831394 
	C43.821232,68.736374 36.380875,79.288750 38.955540,93.597496 
	C41.125927,105.659447 43.237629,117.774727 46.421562,129.584320 
	C47.324406,132.933090 51.894371,135.293182 54.713772,138.569931 
	C54.438988,138.938293 54.164204,139.306671 53.176559,139.792526 
	C47.142624,143.168182 43.471806,149.916641 44.424305,156.342300 
	C45.564220,164.032242 49.983238,169.228470 57.481766,171.051819 
	C61.028248,171.914185 62.183170,173.477448 62.837681,176.862808 
	C65.142670,188.785095 67.596352,200.690536 70.456917,212.490051 
	C73.191490,223.769775 79.521477,232.607117 90.625603,236.933884 
	C100.834053,240.911636 111.168983,244.693878 121.695641,247.694031 
	C135.601639,251.657333 149.542450,250.668823 162.652191,244.443039 
	C171.795212,240.101089 180.581451,234.965942 189.336319,229.858170 
	C203.176407,221.783630 209.072815,209.356949 208.805222,193.545227 
	C208.624985,182.895813 208.970078,172.238403 208.916168,161.585388 
	C208.902191,158.823746 209.442795,157.213852 212.296326,155.874237 
	C215.166122,154.526962 217.976761,152.221161 219.798279,149.623581 
	C226.242325,140.434143 222.968994,130.380142 211.505890,123.547249 
	C212.033997,122.412476 212.575043,121.249893 213.012466,120.032280 
	C213.012466,120.032280 213.087097,120.122810 213.701843,119.902649 
	C214.136581,118.936195 214.571335,117.969749 215.149216,116.652115 
	C215.149216,116.652115 215.110931,116.274826 215.685577,115.855881 
	C215.891403,110.195122 216.097229,104.534363 216.426163,98.263725 
	C216.357422,97.858139 216.288696,97.452553 216.413681,96.210587 
	C216.351089,94.787758 216.288498,93.364922 216.433716,91.366440 
	C216.423492,90.962563 216.413284,90.558693 216.762100,89.401657 
	C216.811722,85.603401 217.018143,81.799507 216.881592,78.007957 
	C216.471024,66.608208 212.790497,56.750759 203.053711,49.974014 
	C203.053711,49.974014 203.153839,49.891079 202.982758,49.284592 
	C202.319183,48.895206 201.655594,48.505821 200.621170,47.946133 
	C200.621170,47.946133 200.213684,47.924572 199.970978,47.452003 
	C199.652328,47.340591 199.333664,47.229179 198.683746,46.917408 
	C198.683746,46.917408 198.297150,46.896751 198.031952,46.396847 
	C197.699570,46.232738 197.367188,46.068634 197.023499,45.979488 
	C197.023499,45.979488 197.095062,45.954502 196.907303,45.451962 
z"/>
<path fill="#4B5CA6" opacity="1.000000" stroke="none" 
	d="
M183.238571,39.903603 
	C183.238571,39.903603 183.625900,39.871464 183.986160,40.176067 
	C184.910446,40.648132 185.474472,40.815590 186.038498,40.983047 
	C186.038498,40.983047 186.531433,40.919651 186.965057,41.222443 
	C187.988525,41.662048 188.578384,41.798866 189.168228,41.935680 
	C189.168228,41.935680 189.597992,41.940773 189.944595,42.223015 
	C190.596024,42.647099 190.900864,42.788940 191.205688,42.930782 
	C191.205688,42.930782 191.605774,42.920135 191.868225,43.325989 
	C193.145233,44.131275 194.159790,44.530716 195.174332,44.930153 
	C195.174332,44.930157 195.603409,44.962803 195.933868,45.233772 
	C196.487640,45.753654 196.764542,45.903576 197.095062,45.954502 
	C197.095062,45.954502 197.023499,45.979488 197.162750,46.192558 
	C197.633713,46.569336 197.965424,46.733047 198.297150,46.896751 
	C198.297150,46.896751 198.683746,46.917408 198.995758,47.221985 
	C199.609756,47.659229 199.911713,47.791901 200.213684,47.924572 
	C200.213684,47.924572 200.621170,47.946133 200.864777,48.348156 
	C201.790207,49.130478 202.472015,49.510780 203.153839,49.891079 
	C203.153839,49.891079 203.053711,49.974014 203.049774,50.316639 
	C204.021027,52.387814 204.864609,54.212170 206.024811,55.806057 
	C206.640488,56.651901 208.209946,56.888474 208.659576,57.756939 
	C212.782562,65.720497 215.891785,73.929718 215.102295,83.211281 
	C214.909943,85.472549 215.936783,87.837524 216.403046,90.154816 
	C216.413284,90.558693 216.423492,90.962563 216.024048,91.873993 
	C215.816223,93.936684 216.018082,95.491821 216.219955,97.046967 
	C216.288696,97.452553 216.357422,97.858139 216.023407,98.842628 
	C215.450760,105.039299 215.280853,110.657059 215.110931,116.274826 
	C215.110931,116.274826 215.149216,116.652115 214.728180,116.889153 
	C213.900467,118.125069 213.493790,119.123940 213.087097,120.122810 
	C213.087097,120.122810 213.012466,120.032280 212.655350,120.032898 
	C210.938583,120.181282 209.578949,120.329048 208.219299,120.476814 
	C207.987869,120.948685 207.756454,121.420547 207.525024,121.892410 
	C209.994720,124.075485 212.747726,126.019073 214.853333,128.509918 
	C216.902222,130.933716 218.899246,133.724701 219.839142,136.696060 
	C221.866684,143.105789 221.566254,143.315170 218.865692,145.309021 
	C217.925385,143.879944 216.981064,142.444733 215.956055,140.679855 
	C215.910599,139.901062 215.945816,139.451950 216.196640,138.863312 
	C216.104813,138.143631 215.797363,137.563492 215.351898,136.665512 
	C215.167236,135.890182 215.120621,135.432693 215.319122,134.753250 
	C215.006287,130.149857 213.566483,129.010193 209.716263,130.134705 
	C209.470001,130.172073 208.997330,130.014786 208.925949,129.659119 
	C205.879089,127.948059 204.745956,124.685028 202.661484,122.862198 
	C198.757751,119.448471 193.497620,117.585846 188.576508,115.038788 
	C188.351273,114.999588 188.001160,114.705536 187.901306,114.371826 
	C184.434479,111.854691 181.081314,109.649315 177.685791,107.511200 
	C177.168839,107.185677 176.455612,107.171860 175.667648,106.931854 
	C175.203842,106.638695 174.905548,106.427544 174.211945,106.176361 
	C172.854095,107.372459 171.891541,108.608589 170.928024,109.895409 
	C170.927078,109.946106 170.828781,109.921242 170.435089,109.942703 
	C165.917557,110.346558 161.783371,110.651306 157.681473,111.198212 
	C157.091766,111.276833 156.657639,112.522484 156.124741,113.176048 
	C156.097977,113.124054 156.207382,113.165390 155.813873,113.118256 
	C154.303680,114.416626 153.187012,115.762123 152.038666,117.067566 
	C152.006973,117.027512 152.098907,117.072044 151.701080,117.053238 
	C143.083282,120.639442 135.082275,121.441368 127.597878,115.232483 
	C127.433792,115.096367 126.967575,115.324440 126.691994,115.321854 
	C126.741684,115.261101 126.597244,115.322578 126.748962,114.948128 
	C129.411194,109.984726 125.961510,109.658943 122.608444,109.037903 
	C121.848389,108.996002 121.415413,108.946297 120.913376,108.556076 
	C115.211037,107.206497 109.581139,106.177628 103.939583,105.217201 
	C103.335991,105.114441 102.590408,105.264618 102.036186,105.545280 
	C97.699219,107.741501 93.392921,109.998283 89.093163,112.172302 
	C89.109154,112.108223 89.222992,112.175201 88.857193,112.149979 
	C86.707062,114.815300 84.922722,117.505836 83.101700,120.140076 
	C83.065010,120.083786 83.183983,120.146278 82.735825,120.101639 
	C79.455917,120.826370 75.194046,117.757286 74.058037,123.081024 
	C74.043282,123.044388 74.120995,123.030182 73.826927,123.250854 
	C72.708595,126.675690 71.884331,129.879837 71.035004,133.051453 
	C71.009941,133.018906 71.089493,133.039413 70.849594,133.143127 
	C70.422333,133.532822 70.234978,133.818817 70.039734,134.061920 
	C70.031845,134.019028 70.101135,134.071976 69.699951,134.050079 
	C66.019142,134.223160 62.898483,134.615799 63.028637,139.047928 
	C63.018471,139.032898 63.058010,139.041199 62.703175,139.085037 
	C59.222939,140.780457 56.097534,142.432022 53.057919,144.038269 
	C52.627415,143.404953 52.439693,143.238953 52.471104,143.158432 
	C52.926640,141.990585 53.411537,140.834167 53.889420,139.675034 
	C54.164204,139.306671 54.438988,138.938293 55.007469,138.160919 
	C55.202591,137.192871 55.288094,136.291260 54.978500,136.124908 
	C47.453945,132.081406 46.628334,124.363945 44.983692,117.327393 
	C43.263699,109.968460 41.874886,102.470604 41.152477,94.955498 
	C40.236393,85.425606 41.011269,76.254532 48.484245,68.695694 
	C50.951439,66.200150 51.676773,61.982533 53.198547,58.552311 
	C53.198547,58.552311 53.322815,58.326824 53.770134,58.484138 
	C55.771999,56.996670 57.326550,55.351887 58.881096,53.707100 
	C58.941257,53.388565 59.120064,53.164864 60.047188,53.007576 
	C62.531513,52.468876 64.444115,52.108643 66.229507,51.419067 
	C70.846046,49.636013 75.269264,47.178867 80.017708,45.946880 
	C90.041031,43.346329 100.179710,41.117092 110.369576,39.282833 
	C112.941788,38.819813 115.856331,40.673431 118.667000,40.994171 
	C121.088516,41.270504 124.415794,45.761063 125.889809,39.842022 
	C125.889809,39.842022 125.928047,39.946758 126.261238,39.918110 
	C128.296783,38.944740 129.974792,37.235313 131.705475,37.180233 
	C142.406982,36.839645 153.136063,36.486328 163.823929,36.922508 
	C170.325211,37.187828 176.768967,38.862186 183.238571,39.903603 
z"/>
<path fill="#5564A2" opacity="1.000000" stroke="none" 
	d="
M216.036728,141.009537 
	C216.981064,142.444733 217.925385,143.879944 218.865692,145.309021 
	C221.566254,143.315170 221.866684,143.105789 219.839142,136.696060 
	C218.899246,133.724701 216.902222,130.933716 214.853333,128.509918 
	C212.747726,126.019073 209.994720,124.075485 207.525024,121.892410 
	C207.756454,121.420547 207.987869,120.948685 208.219299,120.476814 
	C209.578949,120.329048 210.938583,120.181282 212.707153,120.060410 
	C212.575043,121.249893 212.033997,122.412476 211.505890,123.547249 
	C222.968994,130.380142 226.242325,140.434143 219.798279,149.623581 
	C217.976761,152.221161 215.166122,154.526962 212.296326,155.874237 
	C209.442795,157.213852 208.902191,158.823746 208.916168,161.585388 
	C208.970078,172.238403 208.624985,182.895813 208.805222,193.545227 
	C209.072815,209.356949 203.176407,221.783630 189.336319,229.858170 
	C180.581451,234.965942 171.795212,240.101089 162.652191,244.443039 
	C149.542450,250.668823 135.601639,251.657333 121.695641,247.694031 
	C111.168983,244.693878 100.834053,240.911636 90.625603,236.933884 
	C79.521477,232.607117 73.191490,223.769775 70.456917,212.490051 
	C67.596352,200.690536 65.142670,188.785095 62.837681,176.862808 
	C62.183170,173.477448 61.028248,171.914185 57.481766,171.051819 
	C49.983238,169.228470 45.564220,164.032242 44.424305,156.342300 
	C43.471806,149.916641 47.142624,143.168182 53.532990,139.733780 
	C53.411537,140.834167 52.926640,141.990585 52.471104,143.158432 
	C52.439693,143.238953 52.627415,143.404953 53.057919,144.038269 
	C56.097534,142.432022 59.222939,140.780457 62.719635,139.461884 
	C61.388317,141.529617 59.978130,143.884964 57.915974,144.856659 
	C54.652454,146.394440 51.490364,148.088028 51.988136,151.895004 
	C52.522041,155.978302 54.140411,159.970230 55.727730,163.819687 
	C56.019466,164.527176 58.465572,164.714172 59.843079,164.543320 
	C66.284485,163.744415 66.386475,163.836533 67.744591,169.973267 
	C70.654808,183.123367 73.718719,196.239395 76.645332,209.385941 
	C78.982697,219.885544 84.751869,227.699478 94.908615,231.483826 
	C104.711441,235.136292 114.665344,238.473816 124.738098,241.286316 
	C135.266541,244.226028 146.064117,243.984009 156.099869,239.514969 
	C165.944641,235.130997 175.432922,229.890900 184.856323,224.630035 
	C197.270966,217.699249 202.384979,206.812393 202.106476,192.665741 
	C201.854614,179.872681 202.468750,167.055664 203.011948,154.262405 
	C203.081741,152.618423 205.281021,149.552475 206.053680,149.686310 
	C213.215836,150.926910 215.077072,146.596573 216.036728,141.009537 
z"/>
<path fill="#5564A2" opacity="1.000000" stroke="none" 
	d="
M52.934467,58.691853 
	C51.676773,61.982533 50.951439,66.200150 48.484245,68.695694 
	C41.011269,76.254532 40.236393,85.425606 41.152477,94.955498 
	C41.874886,102.470604 43.263699,109.968460 44.983692,117.327393 
	C46.628334,124.363945 47.453945,132.081406 54.978500,136.124908 
	C55.288094,136.291260 55.202591,137.192871 55.041859,137.929306 
	C51.894371,135.293182 47.324406,132.933090 46.421562,129.584320 
	C43.237629,117.774727 41.125927,105.659447 38.955540,93.597496 
	C36.380875,79.288750 43.821232,68.736374 52.934467,58.691853 
z"/>
<path fill="#5564A2" opacity="1.000000" stroke="none" 
	d="
M125.486832,39.965553 
	C124.415794,45.761063 121.088516,41.270504 118.667000,40.994171 
	C115.856331,40.673431 112.941788,38.819813 110.369576,39.282833 
	C100.179710,41.117092 90.041031,43.346329 80.017708,45.946880 
	C75.269264,47.178867 70.846046,49.636013 66.229507,51.419067 
	C64.444115,52.108643 62.531513,52.468876 60.264008,52.959000 
	C69.014664,46.047935 79.448051,42.498501 90.703781,40.861370 
	C96.964874,39.950706 103.139961,38.461468 109.371849,37.332611 
	C113.299294,36.621189 117.169037,35.945084 120.543892,39.346321 
	C121.418449,40.227718 123.536819,39.874958 125.486832,39.965553 
z"/>
<path fill="#5564A2" opacity="1.000000" stroke="none" 
	d="
M216.582581,89.778236 
	C215.936783,87.837524 214.909943,85.472549 215.102295,83.211281 
	C215.891785,73.929718 212.782562,65.720497 208.659576,57.756939 
	C208.209946,56.888474 206.640488,56.651901 206.024811,55.806057 
	C204.864609,54.212170 204.021027,52.387814 203.078674,50.258411 
	C212.790497,56.750759 216.471024,66.608208 216.881592,78.007957 
	C217.018143,81.799507 216.811722,85.603401 216.582581,89.778236 
z"/>
<path fill="#5564A2" opacity="1.000000" stroke="none" 
	d="
M183.143005,39.633270 
	C176.768967,38.862186 170.325211,37.187828 163.823929,36.922508 
	C153.136063,36.486328 142.406982,36.839645 131.705475,37.180233 
	C129.974792,37.235313 128.296783,38.944740 126.214157,39.888260 
	C127.536491,33.588745 133.382019,35.238171 137.289551,34.821270 
	C145.456375,33.949940 153.838913,33.875137 162.014206,34.679340 
	C169.110199,35.377373 176.042694,37.737423 183.143005,39.633270 
z"/>
<path fill="#5564A2" opacity="1.000000" stroke="none" 
	d="
M215.398254,116.065353 
	C215.280853,110.657059 215.450760,105.039299 215.961853,99.147568 
	C216.097229,104.534363 215.891403,110.195122 215.398254,116.065353 
z"/>
<path fill="#5564A2" opacity="1.000000" stroke="none" 
	d="
M58.568542,53.836090 
	C57.326550,55.351887 55.771999,56.996670 53.881302,58.419228 
	C55.115429,56.786358 56.685707,55.375717 58.568542,53.836090 
z"/>
<path fill="#5564A2" opacity="1.000000" stroke="none" 
	d="
M213.394470,120.012726 
	C213.493790,119.123940 213.900467,118.125069 214.656616,117.064743 
	C214.571335,117.969749 214.136581,118.936195 213.394470,120.012726 
z"/>
<path fill="#5564A2" opacity="1.000000" stroke="none" 
	d="
M195.052429,44.611267 
	C194.159790,44.530716 193.145233,44.131275 192.060226,43.382454 
	C192.970016,43.452839 193.950256,43.872612 195.052429,44.611267 
z"/>
<path fill="#5564A2" opacity="1.000000" stroke="none" 
	d="
M216.316818,96.628777 
	C216.018082,95.491821 215.816223,93.936684 215.920135,92.161819 
	C216.288498,93.364922 216.351089,94.787758 216.316818,96.628777 
z"/>
<path fill="#5564A2" opacity="1.000000" stroke="none" 
	d="
M203.068298,49.587837 
	C202.472015,49.510780 201.790207,49.130478 201.050201,48.433304 
	C201.655594,48.505821 202.319183,48.895206 203.068298,49.587837 
z"/>
<path fill="#5564A2" opacity="1.000000" stroke="none" 
	d="
M189.070953,41.713646 
	C188.578384,41.798866 187.988525,41.662048 187.206116,41.282745 
	C187.666931,41.190708 188.320297,41.341156 189.070953,41.713646 
z"/>
<path fill="#5564A2" opacity="1.000000" stroke="none" 
	d="
M185.894836,40.781815 
	C185.474472,40.815590 184.910446,40.648132 184.171478,40.234577 
	C184.581406,40.185848 185.166306,40.383217 185.894836,40.781815 
z"/>
<path fill="#5564A2" opacity="1.000000" stroke="none" 
	d="
M200.092331,47.688286 
	C199.911713,47.791901 199.609756,47.659229 199.161407,47.322163 
	C199.333664,47.229179 199.652328,47.340591 200.092331,47.688286 
z"/>
<path fill="#5564A2" opacity="1.000000" stroke="none" 
	d="
M198.164551,46.646801 
	C197.965424,46.733047 197.633713,46.569336 197.168396,46.155079 
	C197.367188,46.068634 197.699570,46.232738 198.164551,46.646801 
z"/>
<path fill="#5564A2" opacity="1.000000" stroke="none" 
	d="
M197.001190,45.703232 
	C196.764542,45.903576 196.487640,45.753654 196.138306,45.300835 
	C196.310623,45.215271 196.608963,45.333618 197.001190,45.703232 
z"/>
<path fill="#5564A2" opacity="1.000000" stroke="none" 
	d="
M191.079086,42.684677 
	C190.900864,42.788940 190.596024,42.647099 190.147934,42.292519 
	C190.320602,42.199387 190.636551,42.318981 191.079086,42.684677 
z"/>
<path fill="#F3F3F5" opacity="1.000000" stroke="none" 
	d="
M215.956055,140.679855 
	C215.077072,146.596573 213.215836,150.926910 206.053680,149.686310 
	C205.281021,149.552475 203.081741,152.618423 203.011948,154.262405 
	C202.468750,167.055664 201.854614,179.872681 202.106476,192.665741 
	C202.384979,206.812393 197.270966,217.699249 184.856323,224.630035 
	C175.432922,229.890900 165.944641,235.130997 156.099869,239.514969 
	C146.064117,243.984009 135.266541,244.226028 124.738098,241.286316 
	C114.665344,238.473816 104.711441,235.136292 94.908615,231.483826 
	C84.751869,227.699478 78.982697,219.885544 76.645332,209.385941 
	C73.718719,196.239395 70.654808,183.123367 67.744591,169.973267 
	C66.386475,163.836533 66.284485,163.744415 59.843079,164.543320 
	C58.465572,164.714172 56.019466,164.527176 55.727730,163.819687 
	C54.140411,159.970230 52.522041,155.978302 51.988136,151.895004 
	C51.490364,148.088028 54.652454,146.394440 57.915974,144.856659 
	C59.978130,143.884964 61.388317,141.529617 63.074471,139.418045 
	C63.058010,139.041199 63.018471,139.032898 63.395210,138.957031 
	C64.516182,138.783173 65.260414,138.685181 66.068893,138.955536 
	C67.512695,140.481598 68.724037,142.010773 70.303879,142.726151 
	C74.729668,144.730225 76.157692,147.675583 76.351807,152.728516 
	C76.818703,164.881424 85.120659,171.979706 97.169708,172.118668 
	C107.385902,172.236496 114.165489,166.683487 119.914917,159.475906 
	C119.463356,162.804901 118.782631,165.713776 118.453064,168.661911 
	C117.457787,177.565109 124.155823,184.078995 132.538986,181.407028 
	C137.005539,179.983383 140.770645,176.180740 144.611511,173.146957 
	C145.254990,172.638687 145.186600,170.120544 144.511826,169.347153 
	C143.756927,168.481934 141.811081,168.041504 140.614746,168.340714 
	C139.301605,168.669159 138.254318,170.054596 137.087372,170.974609 
	C134.276413,173.190689 131.551254,176.738892 127.572403,174.432816 
	C123.119682,171.852112 125.847336,167.649567 126.371185,164.064270 
	C126.465149,163.421219 126.923302,162.829224 127.005859,162.186981 
	C127.698967,156.795044 128.343674,151.396896 129.340607,145.835968 
	C133.447433,145.467163 137.216614,145.263016 141.205872,145.320221 
	C142.653656,147.218872 143.895950,148.845444 145.105957,150.495667 
	C147.611694,153.913010 149.492813,158.135330 152.718277,160.608109 
	C160.181168,166.329453 168.787643,165.736923 176.595261,161.493423 
	C184.248962,157.333542 189.957672,151.125519 190.085342,141.512222 
	C190.224243,131.053635 192.377518,127.803719 201.018494,125.382065 
	C202.360260,129.702499 205.208359,130.727509 208.997330,130.014786 
	C208.997330,130.014786 209.470001,130.172073 209.955719,130.354340 
	C211.985626,132.016144 213.529831,133.495682 215.074020,134.975204 
	C215.120621,135.432693 215.167236,135.890182 215.284424,136.935455 
	C215.563675,138.016449 215.772339,138.509644 215.981018,139.002838 
	C215.945816,139.451950 215.910599,139.901062 215.956055,140.679855 
M145.014893,198.790222 
	C139.334442,199.548340 133.649338,200.274155 127.977142,201.089584 
	C126.714417,201.271103 125.497032,201.768036 124.258766,202.119751 
	C125.222313,203.036270 126.227371,204.780670 127.142662,204.734772 
	C133.035858,204.439240 138.943420,203.971954 144.770584,203.071335 
	C146.745682,202.766083 148.602646,201.174515 150.297302,199.886246 
	C150.823792,199.486038 150.991150,197.974289 150.657349,197.301773 
	C150.427231,196.838135 148.978195,196.662704 148.208008,196.866165 
	C147.295883,197.107101 146.527924,197.893753 145.014893,198.790222 
M101.457291,182.334930 
	C99.944504,180.996582 98.597649,179.285553 96.837837,178.502090 
	C96.127121,178.185699 94.285866,179.695160 93.365067,180.733658 
	C92.029007,182.240509 90.865044,183.982422 90.016251,185.805038 
	C89.572525,186.757858 89.958733,188.097168 89.970100,189.261902 
	C91.130569,189.110550 92.501472,189.299530 93.408691,188.738586 
	C95.436333,187.484924 97.232834,185.857437 99.411903,184.157196 
	C100.507439,185.873367 100.847046,187.075455 101.562531,187.372681 
	C102.699936,187.845169 104.088120,187.713959 105.370232,187.838104 
	C105.092949,186.279495 104.963249,184.667847 104.435654,183.199158 
	C104.302094,182.827362 102.899849,182.911301 101.457291,182.334930 
M131.723312,210.293259 
	C134.514954,213.453873 139.420105,213.871811 144.106644,211.090500 
	C144.966522,210.580200 145.276993,209.144104 145.841049,208.135361 
	C144.830185,207.964691 143.817780,207.641647 142.808762,207.651978 
	C139.811874,207.682678 136.806885,207.744400 133.826828,208.025146 
	C133.073410,208.096115 132.401276,209.029984 131.723312,210.293259 
z"/>
<path fill="#EFF0F3" opacity="1.000000" stroke="none" 
	d="
M188.001160,114.705536 
	C188.001160,114.705536 188.351273,114.999588 188.669281,115.373169 
	C191.691833,117.816788 194.396362,119.886818 196.911163,122.243225 
	C193.854416,124.706795 190.987411,126.883987 187.646072,129.421387 
	C181.771500,120.287003 172.920105,120.519005 163.961823,120.975723 
	C152.773407,121.546127 146.714218,126.939240 144.904297,138.081696 
	C144.538025,140.336578 144.093216,142.459732 140.697617,141.707565 
	C136.669678,141.266464 132.954697,141.087173 129.164459,140.485413 
	C128.591309,136.804199 128.413818,133.445282 127.441048,130.335083 
	C127.040649,129.054947 124.928955,128.310028 123.595657,127.321671 
	C122.713654,128.655151 121.124428,129.971039 121.090759,131.325592 
	C121.010445,134.556442 121.664284,137.805542 121.761002,140.826019 
	C117.139038,130.615997 108.867287,127.547073 98.808372,128.195908 
	C89.091263,128.822708 80.595306,131.806000 77.167809,142.217331 
	C73.591324,140.605255 70.618134,139.265121 67.697418,137.676178 
	C67.828987,137.277451 67.908089,137.127533 68.219955,136.890823 
	C68.731270,136.585175 68.880333,136.298904 69.085159,135.731033 
	C69.547318,135.035233 69.824226,134.553604 70.101135,134.071976 
	C70.101135,134.071976 70.031845,134.019028 70.291855,133.973419 
	C70.731071,133.631668 70.910278,133.335541 71.089493,133.039413 
	C71.089493,133.039413 71.009941,133.018906 71.358597,132.924683 
	C72.511841,129.563705 73.316422,126.296951 74.121002,123.030182 
	C74.120995,123.030182 74.043282,123.044388 74.465118,123.043381 
	C77.652641,122.077019 80.418312,121.111656 83.183983,120.146286 
	C83.183983,120.146278 83.065010,120.083786 83.464828,120.130447 
	C85.650757,117.509804 87.436874,114.842499 89.222992,112.175201 
	C89.222992,112.175201 89.109154,112.108223 89.520477,112.195480 
	C93.514084,111.237396 97.067307,110.071762 100.690620,109.196236 
	C102.571762,108.741676 104.576927,108.654587 106.525940,108.655540 
	C111.344810,108.657875 116.163605,108.806656 120.982430,108.896591 
	C121.415413,108.946297 121.848389,108.996002 122.689102,109.376923 
	C124.263634,111.579620 125.430443,113.451096 126.597244,115.322578 
	C126.597244,115.322578 126.741684,115.261101 126.799713,115.635681 
	C134.176178,123.516411 143.876083,123.924446 152.098907,117.072044 
	C152.098907,117.072044 152.006973,117.027512 152.359482,116.992889 
	C153.877121,115.693970 155.042252,114.429680 156.207382,113.165390 
	C156.207382,113.165390 156.097977,113.124054 156.502731,113.169052 
	C161.933411,113.746223 166.873413,113.915161 170.828781,109.921242 
	C170.828781,109.921242 170.927078,109.946106 171.238800,109.798203 
	C172.569427,108.505669 173.588348,107.361031 174.607254,106.216393 
	C174.905548,106.427544 175.203842,106.638695 175.711121,107.289345 
	C178.355087,112.811249 182.085541,115.650330 188.001160,114.705536 
z"/>
<path fill="#5564A2" opacity="1.000000" stroke="none" 
	d="
M120.913376,108.556076 
	C116.163605,108.806656 111.344810,108.657875 106.525940,108.655540 
	C104.576927,108.654587 102.571762,108.741676 100.690620,109.196236 
	C97.067307,110.071762 93.514084,111.237396 89.504486,112.259552 
	C93.392921,109.998283 97.699219,107.741501 102.036186,105.545280 
	C102.590408,105.264618 103.335991,105.114441 103.939583,105.217201 
	C109.581139,106.177628 115.211037,107.206497 120.913376,108.556076 
z"/>
<path fill="#5564A2" opacity="1.000000" stroke="none" 
	d="
M197.100891,121.956856 
	C194.396362,119.886818 191.691833,117.816788 188.894516,115.412369 
	C193.497620,117.585846 198.757751,119.448471 202.661484,122.862198 
	C204.745956,124.685028 205.879089,127.948059 208.925949,129.659119 
	C205.208359,130.727509 202.360260,129.702499 201.033615,125.031952 
	C199.676819,123.534706 198.388855,122.745781 197.100891,121.956856 
z"/>
<path fill="#5564A2" opacity="1.000000" stroke="none" 
	d="
M151.701080,117.053238 
	C143.876083,123.924446 134.176178,123.516411 126.750023,115.696434 
	C126.967575,115.324440 127.433792,115.096367 127.597878,115.232483 
	C135.082275,121.441368 143.083282,120.639442 151.701080,117.053238 
z"/>
<path fill="#5564A2" opacity="1.000000" stroke="none" 
	d="
M187.901306,114.371826 
	C182.085541,115.650330 178.355087,112.811249 175.876648,107.371353 
	C176.455612,107.171860 177.168839,107.185677 177.685791,107.511200 
	C181.081314,109.649315 184.434479,111.854691 187.901306,114.371826 
z"/>
<path fill="#5564A2" opacity="1.000000" stroke="none" 
	d="
M170.435089,109.942703 
	C166.873413,113.915161 161.933411,113.746223 156.529495,113.221039 
	C156.657639,112.522484 157.091766,111.276833 157.681473,111.198212 
	C161.783371,110.651306 165.917557,110.346558 170.435089,109.942703 
z"/>
<path fill="#5564A2" opacity="1.000000" stroke="none" 
	d="
M88.857193,112.149979 
	C87.436874,114.842499 85.650757,117.509804 83.501511,120.186737 
	C84.922722,117.505836 86.707062,114.815300 88.857193,112.149979 
z"/>
<path fill="#5564A2" opacity="1.000000" stroke="none" 
	d="
M67.987190,136.977631 
	C67.908089,137.127533 67.828987,137.277451 67.460403,137.614716 
	C66.782166,138.063766 66.393402,138.325470 66.004639,138.587189 
	C65.260414,138.685181 64.516182,138.783173 63.405376,138.972076 
	C62.898483,134.615799 66.019142,134.223160 69.699951,134.050079 
	C69.824226,134.553604 69.547318,135.035233 68.843140,135.807922 
	C68.272972,136.391861 68.130081,136.684738 67.987190,136.977631 
z"/>
<path fill="#5564A2" opacity="1.000000" stroke="none" 
	d="
M82.735825,120.101639 
	C80.418312,121.111656 77.652641,122.077019 74.479874,123.080025 
	C75.194046,117.757286 79.455917,120.826370 82.735825,120.101639 
z"/>
<path fill="#5564A2" opacity="1.000000" stroke="none" 
	d="
M126.748962,114.948128 
	C125.430443,113.451096 124.263634,111.579620 123.016174,109.369110 
	C125.961510,109.658943 129.411194,109.984726 126.748962,114.948128 
z"/>
<path fill="#5564A2" opacity="1.000000" stroke="none" 
	d="
M73.826935,123.250854 
	C73.316422,126.296951 72.511841,129.563705 71.383659,132.957245 
	C71.884331,129.879837 72.708595,126.675690 73.826935,123.250854 
z"/>
<path fill="#5564A2" opacity="1.000000" stroke="none" 
	d="
M215.319122,134.753250 
	C213.529831,133.495682 211.985626,132.016144 210.201981,130.316986 
	C213.566483,129.010193 215.006287,130.149857 215.319122,134.753250 
z"/>
<path fill="#5564A2" opacity="1.000000" stroke="none" 
	d="
M155.813873,113.118263 
	C155.042252,114.429680 153.877121,115.693970 152.391174,117.032936 
	C153.187012,115.762123 154.303680,114.416626 155.813873,113.118263 
z"/>
<path fill="#5564A2" opacity="1.000000" stroke="none" 
	d="
M174.211945,106.176361 
	C173.588348,107.361031 172.569427,108.505669 171.239746,109.747505 
	C171.891541,108.608589 172.854095,107.372459 174.211945,106.176361 
z"/>
<path fill="#5564A2" opacity="1.000000" stroke="none" 
	d="
M216.196625,138.863312 
	C215.772339,138.509644 215.563675,138.016449 215.422455,137.253296 
	C215.797363,137.563492 216.104813,138.143631 216.196625,138.863312 
z"/>
<path fill="#5564A2" opacity="1.000000" stroke="none" 
	d="
M70.849586,133.143127 
	C70.910278,133.335541 70.731071,133.631668 70.299744,134.016296 
	C70.234978,133.818817 70.422333,133.532822 70.849586,133.143127 
z"/>
<path fill="#BBB7BA" opacity="1.000000" stroke="none" 
	d="
M66.068893,138.955521 
	C66.393402,138.325470 66.782166,138.063766 67.407944,137.863510 
	C70.618134,139.265121 73.591324,140.605255 77.167809,142.217331 
	C80.595306,131.806000 89.091263,128.822708 98.808372,128.195908 
	C108.867287,127.547073 117.139038,130.615997 121.864609,141.144943 
	C122.743919,142.714035 123.259010,143.742935 123.968529,145.160202 
	C126.059052,143.473770 127.649384,142.190826 129.239716,140.907898 
	C132.954697,141.087173 136.669678,141.266464 140.693832,142.093658 
	C140.997269,143.514008 140.991516,144.286438 140.985779,145.058853 
	C137.216614,145.263016 133.447433,145.467163 128.966110,145.858246 
	C126.185181,148.079742 123.749191,149.867294 122.162430,152.226120 
	C120.864815,154.155121 120.580078,156.765457 119.846298,159.073746 
	C114.165489,166.683487 107.385902,172.236496 97.169708,172.118668 
	C85.120659,171.979706 76.818703,164.881424 76.351807,152.728516 
	C76.157692,147.675583 74.729668,144.730225 70.303879,142.726151 
	C68.724037,142.010773 67.512695,140.481598 66.068893,138.955521 
M99.945648,168.787277 
	C102.853310,167.586365 105.939026,166.693192 108.637970,165.131561 
	C120.658684,158.176346 122.547852,143.774200 112.728226,135.095032 
	C107.607933,130.569427 101.387802,131.340118 95.669472,132.511459 
	C91.388008,133.388443 86.282570,135.280930 83.722733,138.470078 
	C78.482307,144.998779 78.397858,153.035370 82.294914,160.548370 
	C85.764114,167.236511 92.086342,168.979080 99.945648,168.787277 
z"/>
<path fill="#BCB8B9" opacity="1.000000" stroke="none" 
	d="
M141.205872,145.320221 
	C140.991516,144.286438 140.997269,143.514008 141.006790,142.355499 
	C144.093216,142.459732 144.538025,140.336578 144.904297,138.081696 
	C146.714218,126.939240 152.773407,121.546127 163.961823,120.975723 
	C172.920105,120.519005 181.771500,120.287003 187.646072,129.421387 
	C190.987411,126.883987 193.854416,124.706795 196.911163,122.243225 
	C198.388855,122.745781 199.676819,123.534706 200.949646,124.673752 
	C192.377518,127.803719 190.224243,131.053635 190.085342,141.512222 
	C189.957672,151.125519 184.248962,157.333542 176.595261,161.493423 
	C168.787643,165.736923 160.181168,166.329453 152.718277,160.608109 
	C149.492813,158.135330 147.611694,153.913010 145.105957,150.495667 
	C143.895950,148.845444 142.653656,147.218872 141.205872,145.320221 
M159.300751,125.371933 
	C149.744690,129.009674 145.917419,137.651382 148.792419,149.099060 
	C150.794922,157.072662 159.125610,162.329834 168.068588,160.892715 
	C175.611206,159.680649 181.196823,155.259491 184.689316,148.634827 
	C191.236252,136.216415 183.488541,123.834518 169.441467,124.061844 
	C166.316818,124.112411 163.201813,124.758217 159.300751,125.371933 
z"/>
<path fill="#5867A2" opacity="1.000000" stroke="none" 
	d="
M119.914917,159.475906 
	C120.580078,156.765457 120.864815,154.155121 122.162430,152.226120 
	C123.749191,149.867294 126.185181,148.079742 128.628448,146.022888 
	C128.343674,151.396896 127.698967,156.795044 127.005859,162.186981 
	C126.923302,162.829224 126.465149,163.421219 126.371185,164.064270 
	C125.847336,167.649567 123.119682,171.852112 127.572403,174.432816 
	C131.551254,176.738892 134.276413,173.190689 137.087372,170.974609 
	C138.254318,170.054596 139.301605,168.669159 140.614746,168.340714 
	C141.811081,168.041504 143.756927,168.481934 144.511826,169.347153 
	C145.186600,170.120544 145.254990,172.638687 144.611511,173.146957 
	C140.770645,176.180740 137.005539,179.983383 132.538986,181.407028 
	C124.155823,184.078995 117.457787,177.565109 118.453064,168.661911 
	C118.782631,165.713776 119.463356,162.804901 119.914917,159.475906 
z"/>
<path fill="#6873A0" opacity="1.000000" stroke="none" 
	d="
M145.356186,198.617065 
	C146.527924,197.893753 147.295883,197.107101 148.208008,196.866165 
	C148.978195,196.662704 150.427231,196.838135 150.657349,197.301773 
	C150.991150,197.974289 150.823792,199.486038 150.297302,199.886246 
	C148.602646,201.174515 146.745682,202.766083 144.770584,203.071335 
	C138.943420,203.971954 133.035858,204.439240 127.142662,204.734772 
	C126.227371,204.780670 125.222313,203.036270 124.258774,202.119751 
	C125.497032,201.768036 126.714417,201.271103 127.977142,201.089584 
	C133.649338,200.274155 139.334442,199.548340 145.356186,198.617065 
z"/>
<path fill="#F4E6DC" opacity="1.000000" stroke="none" 
	d="
M101.768936,182.560364 
	C102.899849,182.911301 104.302094,182.827362 104.435654,183.199158 
	C104.963249,184.667847 105.092949,186.279495 105.370224,187.838104 
	C104.088120,187.713959 102.699936,187.845169 101.562531,187.372681 
	C100.847046,187.075455 100.507439,185.873367 99.411903,184.157196 
	C97.232834,185.857437 95.436333,187.484924 93.408691,188.738586 
	C92.501472,189.299530 91.130569,189.110550 89.970100,189.261902 
	C89.958733,188.097168 89.572525,186.757858 90.016251,185.805038 
	C90.865044,183.982422 92.029007,182.240509 93.365067,180.733658 
	C94.285866,179.695160 96.127121,178.185699 96.837837,178.502090 
	C98.597649,179.285553 99.944504,180.996582 101.768936,182.560364 
z"/>
<path fill="#6F7AA6" opacity="1.000000" stroke="none" 
	d="
M131.707550,209.930298 
	C132.401276,209.029984 133.073410,208.096115 133.826828,208.025146 
	C136.806885,207.744400 139.811874,207.682678 142.808762,207.651978 
	C143.817780,207.641647 144.830185,207.964691 145.841049,208.135345 
	C145.276993,209.144104 144.966522,210.580200 144.106644,211.090500 
	C139.420105,213.871811 134.514954,213.453873 131.707550,209.930298 
z"/>
<path fill="#5C6AA1" opacity="1.000000" stroke="none" 
	d="
M129.164459,140.485413 
	C127.649384,142.190826 126.059052,143.473770 123.968529,145.160202 
	C123.259010,143.742935 122.743919,142.714035 122.125221,141.366211 
	C121.664284,137.805542 121.010445,134.556442 121.090759,131.325592 
	C121.124428,129.971039 122.713654,128.655151 123.595657,127.321671 
	C124.928955,128.310028 127.040649,129.054947 127.441048,130.335083 
	C128.413818,133.445282 128.591309,136.804199 129.164459,140.485413 
z"/>
<path fill="#BBB7BA" opacity="1.000000" stroke="none" 
	d="
M68.219955,136.890823 
	C68.130081,136.684738 68.272972,136.391861 68.657883,136.022095 
	C68.880333,136.298904 68.731270,136.585175 68.219955,136.890823 
z"/>
<path fill="#F3F2F3" opacity="1.000000" stroke="none" 
	d="
M99.534447,168.838715 
	C92.086342,168.979080 85.764114,167.236511 82.294914,160.548370 
	C78.397858,153.035370 78.482307,144.998779 83.722733,138.470078 
	C86.282570,135.280930 91.388008,133.388443 95.669472,132.511459 
	C101.387802,131.340118 107.607933,130.569427 112.728226,135.095032 
	C122.547852,143.774200 120.658684,158.176346 108.637970,165.131561 
	C105.939026,166.693192 102.853310,167.586365 99.534447,168.838715 
M95.583435,149.005096 
	C95.022102,152.660767 96.353424,155.533966 100.110992,155.705383 
	C101.763496,155.780762 104.344482,153.868149 105.052208,152.230728 
	C106.291115,149.364334 105.533531,146.206543 102.199875,144.828751 
	C98.906776,143.467728 96.919670,145.276718 95.583435,149.005096 
z"/>
<path fill="#F3F2F3" opacity="1.000000" stroke="none" 
	d="
M159.691559,125.250946 
	C163.201813,124.758217 166.316818,124.112411 169.441467,124.061844 
	C183.488541,123.834518 191.236252,136.216415 184.689316,148.634827 
	C181.196823,155.259491 175.611206,159.680649 168.068588,160.892715 
	C159.125610,162.329834 150.794922,157.072662 148.792419,149.099060 
	C145.917419,137.651382 149.744690,129.009674 159.691559,125.250946 
M172.520233,141.882324 
	C171.926346,138.576553 170.248688,135.737030 166.678040,137.070572 
	C164.813568,137.766937 163.055298,140.701721 162.658844,142.881866 
	C162.158905,145.631027 163.869904,147.914948 167.214996,148.115646 
	C171.143814,148.351364 172.463745,146.101608 172.520233,141.882324 
z"/>
<path fill="#56659F" opacity="1.000000" stroke="none" 
	d="
M95.674866,148.644318 
	C96.919670,145.276718 98.906776,143.467728 102.199875,144.828751 
	C105.533531,146.206543 106.291115,149.364334 105.052208,152.230728 
	C104.344482,153.868149 101.763496,155.780762 100.110992,155.705383 
	C96.353424,155.533966 95.022102,152.660767 95.674866,148.644318 
z"/>
<path fill="#5D699B" opacity="1.000000" stroke="none" 
	d="
M172.543716,142.258179 
	C172.463745,146.101608 171.143814,148.351364 167.214996,148.115646 
	C163.869904,147.914948 162.158905,145.631027 162.658844,142.881866 
	C163.055298,140.701721 164.813568,137.766937 166.678040,137.070572 
	C170.248688,135.737030 171.926346,138.576553 172.543716,142.258179 
M166.747742,145.737503 
	C170.509140,145.984604 170.133179,143.241028 169.814728,141.027817 
	C169.709793,140.298553 168.056351,139.792114 167.110962,139.183777 
	C166.479706,140.833405 165.794144,142.466095 165.269440,144.148956 
	C165.179626,144.437012 165.776657,144.939209 166.747742,145.737503 
z"/>
<path fill="#4A5DA8" opacity="1.000000" stroke="none" 
	d="
M166.402069,145.539993 
	C165.776657,144.939209 165.179626,144.437012 165.269440,144.148956 
	C165.794144,142.466095 166.479706,140.833405 167.110962,139.183777 
	C168.056351,139.792114 169.709793,140.298553 169.814728,141.027817 
	C170.133179,143.241028 170.509140,145.984604 166.402069,145.539993 
z"/>
</svg>